HIERARCHY
ROOT Hips
{
 OFFSET 0.000000 0.000000 0.000000
 CHANNELS 6 Xposition Yposition Zposition Yrotation Xrotation Zrotation
 JOINT Chest
 {
  OFFSET 0.000000 10.388337 0.005184
  CHANNELS 3 Yrotation Xrotation Zrotation
  JOINT Chest2
  {
   OFFSET 0.000000 10.458247 -0.010579
   CHANNELS 3 Yrotation Xrotation Zrotation
   JOINT Chest3
   {
    OFFSET 0.000000 10.415828 0.000000
    CHANNELS 3 Yrotation Xrotation Zrotation
    JOINT Chest4
    {
     OFFSET 0.000000 10.405206 0.000000
     CHANNELS 3 Yrotation Xrotation Zrotation
     JOINT Neck
     {
      OFFSET 0.000000 15.720090 0.000000
      CHANNELS 3 Yrotation Xrotation Zrotation
      JOINT Head
      {
       OFFSET 0.000000 9.732643 -0.022378
       CHANNELS 3 Yrotation Xrotation Zrotation
       End Site
       {
        OFFSET 0.000000 18.603619 -0.011814
       }
      }
     }
     JOINT RightCollar
     {
      OFFSET -3.167735 10.388953 0.000000
      CHANNELS 3 Yrotation Xrotation Zrotation
      JOINT RightShoulder
      {
       OFFSET -14.584825 0.000000 0.000000
       CHANNELS 3 Yrotation Xrotation Zrotation
       JOINT RightElbow
       {
        OFFSET 0.000000 -31.921689 0.000000
        CHANNELS 3 Yrotation Xrotation Zrotation
        JOINT RightWrist
        {
         OFFSET 0.000000 -25.835217 0.000000
         CHANNELS 3 Yrotation Xrotation Zrotation
         End Site
         {
          OFFSET 0.000000 -19.128920 0.000000
         }
        }
       }
      }
     }
     JOINT LeftCollar
     {
      OFFSET 3.167735 10.388953 0.000000
      CHANNELS 3 Yrotation Xrotation Zrotation
      JOINT LeftShoulder
      {
       OFFSET 14.584825 0.000000 0.000000
       CHANNELS 3 Yrotation Xrotation Zrotation
       JOINT LeftElbow
       {
        OFFSET 0.000000 -31.921689 0.000000
        CHANNELS 3 Yrotation Xrotation Zrotation
        JOINT LeftWrist
        {
         OFFSET 0.000000 -25.835217 0.000000
         CHANNELS 3 Yrotation Xrotation Zrotation
         End Site
         {
          OFFSET 0.000000 -19.128920 0.000000
         }
        }
       }
      }
     }
    }
   }
  }
 }
 JOINT RightHip
 {
  OFFSET -8.403278 -0.025659 -0.002592
  CHANNELS 3 Yrotation Xrotation Zrotation
  JOINT RightKnee
  {
   OFFSET 0.000000 -44.040977 0.002477
   CHANNELS 3 Yrotation Xrotation Zrotation
   JOINT RightAnkle
   {
    OFFSET 0.000000 -42.951162 0.004189
    CHANNELS 3 Yrotation Xrotation Zrotation
    JOINT RightToe
    {
     OFFSET 0.000000 -5.494238 12.197485
     CHANNELS 3 Yrotation Xrotation Zrotation
     End Site
     {
      OFFSET 0.000000 -1.538716 6.371628
     }
    }
   }
  }
 }
 JOINT LeftHip
 {
  OFFSET 8.403278 -0.025659 -0.002592
  CHANNELS 3 Yrotation Xrotation Zrotation
  JOINT LeftKnee
  {
   OFFSET 0.000000 -44.040977 0.002477
   CHANNELS 3 Yrotation Xrotation Zrotation
   JOINT LeftAnkle
   {
    OFFSET 0.000000 -42.951162 0.004189
    CHANNELS 3 Yrotation Xrotation Zrotation
    JOINT LeftToe
    {
     OFFSET 0.000000 -5.494238 12.197485
     CHANNELS 3 Yrotation Xrotation Zrotation
     End Site
     {
      OFFSET 0.000000 -1.538716 6.371628
     }
    }
   }
  }
 }
}
MOTION
Frames: 16
Frame Time: 0.008333
0.000000 92.319940 0.000000 0.000000 -5.767889 0.000000 0.000000 11.653876 0.000000 0.000000 -5.885988 0.000000 0.000000 -0.000000 0.000000 0.000000 -0.000000 0.000000 0.000000 12.528808 0.000000 0.000000 0.711711 0.000000 0.000000 -0.000000 0.000000 0.000000 0.000000 -90.000000 0.000000 -2.309063 0.000000 0.000000 2.309063 0.000000 0.000000 -0.000000 0.000000 0.000000 -0.000000 90.000000 0.000000 -2.309063 0.000000 0.000000 2.309063 0.000000 0.000000 8.520374 0.000000 0.000000 1.905768 0.000000 -0.000000 -4.658254 0.000000 0.000000 -0.000000 0.000000 0.000000 8.520374 0.000000 0.000000 1.905768 0.000000 -0.000000 -4.658254 0.000000 0.000000 -0.000000 0.000000
-28.602363 93.386611 85.531341 127.077121 -4.108484 0.760077 0.502550 2.169381 -0.706654 0.007918 0.031163 -0.013828 0.014245 0.056084 -0.024883 0.525313 2.139269 -0.937832 1.132635 19.835957 1.865521 1.500745 1.036568 3.059122 1.864185 2.001219 2.872513 -5.779733 5.231194 -10.379838 1.748594 -10.302879 4.552816 -3.889493 1.991037 3.136731 -0.071180 2.827464 1.793277 -1.368279 2.138819 8.914761 -10.011633 -4.507400 -6.837514 1.180019 -2.340467 0.746826 -5.177860 6.806209 -4.203677 -6.937017 4.175004 -0.215949 1.501193 -5.882415 2.400467 -0.004121 0.285618 0.001336 -0.287868 11.593361 -1.765559 17.304205 -2.750434 -0.836714 -1.446453 -4.578040 -1.002732 -0.031505 -0.168550 0.000233
-28.584777 93.385063 85.542319 127.066624 -4.087425 0.764356 0.497701 2.150186 -0.698400 0.007775 0.030590 -0.013568 0.013988 0.055060 -0.024417 0.520871 2.119977 -0.929008 1.122278 19.852017 1.862825 1.482938 1.066538 3.057345 1.866417 2.011713 2.869069 -5.790408 5.237690 -10.367589 1.746981 -10.317434 4.560536 -3.892604 1.993404 3.138511 -0.079223 2.823350 1.782427 -1.354590 2.097381 8.941975 -9.973742 -4.583092 -6.911775 1.188307 -2.363379 0.749344 -5.169501 6.799953 -4.197945 -6.944225 4.160189 -0.200539 1.507552 -5.902987 2.373059 -0.001933 0.289161 0.005560 -0.252329 11.599719 -1.757149 17.300689 -2.792952 -0.839725 -1.460139 -4.564305 -1.026171 -0.030709 -0.167392 0.005380
-28.563732 93.383168 85.553791 127.056508 -4.069176 0.772214 0.494122 2.131209 -0.691013 0.007665 0.030047 -0.013334 0.013793 0.054088 -0.023999 0.518383 2.101151 -0.921330 1.113855 19.868654 1.860173 1.468652 1.097550 3.055060 1.864548 2.022308 2.862097 -5.801254 5.245201 -10.354998 1.743716 -10.331148 4.570416 -3.894263 1.999346 3.143520 -0.090802 2.819917 1.770332 -1.343283 2.056257 8.969715 -9.939993 -4.657842 -6.983835 1.198155 -2.382493 0.753484 -5.166296 6.795940 -4.192439 -6.943432 4.148939 -0.190493 1.511556 -5.930592 2.347873 -0.000459 0.293367 0.008278 -0.216414 11.612949 -1.750614 17.296383 -2.840313 -0.844350 -1.473565 -4.548757 -1.049497 -0.030647 -0.167144 0.008451
-28.539981 93.380977 85.565054 127.048234 -4.055898 0.783143 0.492751 2.115541 -0.684101 0.007598 0.029607 -0.013156 0.013674 0.053302 -0.023681 0.517802 2.085523 -0.915680 1.107414 19.884116 1.858715 1.457602 1.126354 3.054351 1.856012 2.029799 2.852564 -5.813419 5.252708 -10.343164 1.743414 -10.342808 4.582450 -3.895720 2.005357 3.149859 -0.106200 2.814950 1.758077 -1.338326 2.015372 8.998358 -9.908006 -4.731779 -7.052589 1.208547 -2.398888 0.755962 -5.159672 6.795821 -4.185455 -6.940203 4.143237 -0.187154 1.506760 -5.963581 2.327052 0.000776 0.296890 0.009176 -0.181874 11.633687 -1.745761 17.296999 -2.889651 -0.851288 -1.490543 -4.532722 -1.072339 -0.031285 -0.167642 0.010241
-28.514739 93.378549 85.575573 127.044629 -4.047428 0.796692 0.491298 2.104111 -0.677609 0.007537 0.029290 -0.013035 0.013565 0.052733 -0.023466 0.516486 2.074133 -0.912162 1.103641 19.897520 1.858663 1.450960 1.151303 3.055396 1.842622 2.034352 2.840558 -5.827162 5.259179 -10.331683 1.747813 -10.353453 4.595788 -3.897875 2.010460 3.157073 -0.123700 2.804950 1.744816 -1.335589 1.976428 9.027348 -9.876761 -4.804550 -7.117092 1.216527 -2.413916 0.754309 -5.142359 6.798354 -4.179048 -6.929936 4.146881 -0.184008 1.479453 -6.002157 2.306295 0.002760 0.299498 0.010304 -0.151858 11.659828 -1.742489 17.306214 -2.938078 -0.861227 -1.512193 -4.517615 -1.097126 -0.032800 -0.168206 0.013677
-28.489181 93.375938 85.585113 127.044862 -4.042199 0.811609 0.488424 2.094415 -0.671985 0.007457 0.029022 -0.012930 0.013421 0.052254 -0.023278 0.513386 2.064706 -0.909088 1.103244 19.909537 1.859319 1.450236 1.173626 3.056711 1.828750 2.039432 2.827020 -5.841418 5.265095 -10.318744 1.751807 -10.363333 4.608597 -3.899419 2.015036 3.162689 -0.141101 2.790673 1.728418 -1.328799 1.942222 9.056384 -9.847779 -4.876380 -7.177351 1.221443 -2.426148 0.752193 -5.105299 6.802091 -4.173819 -6.903598 4.160552 -0.175271 1.415039 -6.046791 2.283472 0.005600 0.302093 0.011931 -0.124186 11.686113 -1.739986 17.324996 -2.978960 -0.871779 -1.538682 -4.508837 -1.128170 -0.035534 -0.166878 0.021179
-28.464322 93.373184 85.593479 127.048421 -4.038104 0.826972 0.484070 2.084298 -0.668658 0.007350 0.028740 -0.012804 0.013229 0.051750 -0.023052 0.508588 2.055107 -0.904896 1.106385 19.920657 1.860895 1.455667 1.194233 3.058637 1.816216 2.046112 2.813454 -5.853597 5.272873 -10.303462 1.752172 -10.370262 4.621226 -3.901067 2.014445 3.165434 -0.159706 2.773070 1.709358 -1.315764 1.914574 9.087420 -9.821405 -4.949019 -7.236974 1.224959 -2.436332 0.753135 -5.048312 6.806622 -4.169630 -6.859897 4.180299 -0.158971 1.311512 -6.097151 2.258263 0.008540 0.305869 0.013806 -0.097100 11.707242 -1.739997 17.356779 -3.007944 -0.876274 -1.573236 -4.510521 -1.173690 -0.039090 -0.162127 0.035888
-28.441135 93.370302 85.600263 127.055905 -4.032636 0.843971 0.478253 2.073313 -0.668344 0.007218 0.028435 -0.012647 0.012993 0.051204 -0.022771 0.502358 2.044991 -0.899052 1.112323 19.930662 1.863334 1.465921 1.212727 3.061292 1.804196 2.050963 2.798912 -5.863144 5.285853 -10.287711 1.749451 -10.373981 4.634861 -3.906538 2.006715 3.164693 -0.180953 2.752814 1.688242 -1.297568 1.891896 9.121675 -9.795566 -5.024723 -7.301502 1.228626 -2.446498 0.758005 -4.977493 6.811104 -4.167792 -6.807626 4.201175 -0.136817 1.181849 -6.153254 2.228955 0.011023 0.311893 0.017867 -0.071382 11.717534 -1.746842 17.404735 -3.021051 -0.868302 -1.618069 -4.525454 -1.239616 -0.042811 -0.153579 0.058907
-28.419602 93.367322 85.605090 127.064829 -4.026407 0.862066 0.472404 2.062152 -0.670049 0.007079 0.028112 -0.012453 0.012743 0.050626 -0.022424 0.495798 2.034599 -0.890996 1.120047 19.939977 1.865778 1.479413 1.229914 3.063421 1.791927 2.053857 2.781939 -5.869950 5.302392 -10.271516 1.741161 -10.373602 4.648185 -3.914213 1.995809 3.160729 -0.202071 2.731040 1.664999 -1.277781 1.875293 9.158668 -9.768658 -5.105830 -7.371487 1.234712 -2.457311 0.764687 -4.896244 6.817304 -4.166668 -6.754084 4.219594 -0.113447 1.040708 -6.214507 2.194993 0.013209 0.319536 0.025722 -0.041369 11.711148 -1.757199 17.456476 -3.003306 -0.846845 -1.667439 -4.565159 -1.322519 -0.046462 -0.139318 0.085944
-28.399193 93.364282 85.607459 127.077247 -4.022106 0.880611 0.465659 2.051406 -0.673662 0.006915 0.027776 -0.012231 0.012451 0.050027 -0.022026 0.487701 2.024128 -0.881252 1.128725 19.949303 1.867945 1.494729 1.247105 3.064757 1.779488 2.059246 2.761999 -5.872628 5.318010 -10.252452 1.725776 -10.368163 4.660137 -3.920672 1.985632 3.156598 -0.221796 2.710705 1.640455 -1.257664 1.864797 9.197817 -9.738211 -5.191033 -7.446009 1.243715 -2.473529 0.772720 -4.813370 6.828828 -4.165032 -6.701827 4.233536 -0.092817 0.895399 -6.280188 2.158631 0.015718 0.327186 0.036350 -0.000007 11.685650 -1.765662 17.494563 -2.941914 -0.813419 -1.718452 -4.638381 -1.415249 -0.049575 -0.118855 0.111659
-28.379966 93.361203 85.606821 127.096487 -4.019933 0.902054 0.456679 2.041865 -0.679852 0.006723 0.027461 -0.012024 0.012106 0.049462 -0.021655 0.477230 2.014469 -0.872269 1.136790 19.957672 1.870124 1.508909 1.262528 3.066302 1.767641 2.066383 2.738577 -5.872863 5.333759 -10.229944 1.706026 -10.359392 4.671800 -3.928461 1.977424 3.151572 -0.240978 2.691333 1.614863 -1.237281 1.859559 9.238093 -9.702265 -5.279429 -7.522803 1.254747 -2.495229 0.781501 -4.737482 6.846180 -4.166588 -6.658871 4.242114 -0.075281 0.755542 -6.350251 2.123041 0.018878 0.334386 0.046933 0.050439 11.640988 -1.775062 17.521224 -2.836960 -0.768979 -1.774610 -4.742901 -1.512494 -0.051646 -0.094632 0.133198
-28.362154 93.358100 85.602777 127.122168 -4.019218 0.929574 0.446133 2.035140 -0.689783 0.006526 0.027214 -0.011905 0.011751 0.049020 -0.021442 0.465382 2.006620 -0.868339 1.143414 19.963538 1.873606 1.520029 1.273332 3.070656 1.755120 2.071100 2.714704 -5.870620 5.351318 -10.205277 1.684724 -10.346681 4.682960 -3.941765 1.969850 3.143166 -0.257913 2.668033 1.591050 -1.218315 1.860760 9.279867 -9.662846 -5.371954 -7.601820 1.267982 -2.517531 0.789102 -4.669361 6.868183 -4.177023 -6.631192 4.246251 -0.058194 0.629991 -6.424926 2.090929 0.022259 0.341232 0.054593 0.099856 11.574399 -1.791868 17.550035 -2.685660 -0.711983 -1.837867 -4.878690 -1.612279 -0.052811 -0.068497 0.149907
-28.345359 93.354998 85.595345 127.153013 -4.021371 0.962545 0.435197 2.032208 -0.703099 0.006337 0.027051 -0.011886 0.011412 0.048730 -0.021408 0.453042 2.001051 -0.870015 1.148456 19.967257 1.878616 1.527771 1.280178 3.078272 1.738061 2.072812 2.692232 -5.864160 5.369061 -10.179366 1.663227 -10.326877 4.691478 -3.959382 1.962829 3.135115 -0.270688 2.640972 1.570747 -1.200213 1.865377 9.323107 -9.625029 -5.466319 -7.685483 1.284179 -2.541658 0.797518 -4.605159 6.896478 -4.195315 -6.615695 4.246161 -0.041694 0.513809 -6.503004 2.064701 0.025171 0.347176 0.058229 0.137853 11.482142 -1.817180 17.586704 -2.478064 -0.639806 -1.903527 -5.051869 -1.714266 -0.053753 -0.040480 0.161740
-28.331376 93.351942 85.581929 127.184145 -4.027496 1.019126 0.428243 2.033877 -0.739574 0.006175 0.026981 -0.011902 0.011120 0.048604 -0.021438 0.441749 1.998824 -0.872750 1.150656 19.969108 1.883574 1.530320 1.283601 3.086645 1.714651 2.073080 2.668212 -5.856328 5.383728 -10.150616 1.643321 -10.298131 4.695804 -3.973498 1.957693 3.128750 -0.281248 2.610805 1.548846 -1.180532 1.871594 9.367551 -9.590783 -5.561495 -7.771012 1.304280 -2.566815 0.805086 -4.538434 6.932004 -4.240364 -6.608804 4.237518 -0.025463 0.396658 -6.561718 2.044232 0.028777 0.334139 0.060449 0.155341 11.364993 -1.873277 17.627289 -2.211248 -0.551887 -1.961385 -5.287874 -1.814418 -0.053292 0.010424 0.168692
-28.315190 93.348650 85.570125 127.223881 -4.035091 1.048689 0.420007 2.037883 -0.750448 0.006057 0.027006 -0.011911 0.010908 0.048648 -0.021454 0.432997 2.000541 -0.873509 1.149002 19.968297 1.887509 1.526109 1.282135 3.094315 1.684948 2.072390 2.640300 -5.847292 5.394253 -10.116944 1.626887 -10.258783 4.695635 -3.978342 1.953148 3.120367 -0.294886 2.576386 1.520366 -1.157542 1.881199 9.415230 -9.557192 -5.658643 -7.855630 1.324726 -2.589089 0.806652 -4.464633 6.972596 -4.258319 -6.604895 4.233491 -0.002983 0.269067 -6.644445 2.020217 0.030669 0.336786 0.061687 0.151130 11.214190 -1.902047 17.667191 -1.879154 -0.446348 -2.002560 -5.542181 -1.916831 -0.054311 0.041217 0.169234
